<svg width="800" height="800" viewBox="0 0 800 800" fill="none" xmlns="http://www.w3.org/2000/svg">
<g clip-path="url(#clip0_26_111)">
<rect width="800" height="800" fill="white"/>
<rect width="211" height="163" fill="#E4E4E4"/>
<line y1="-0.5" x2="43.0379" y2="-0.5" transform="matrix(0.71221 -0.701967 0.71221 0.701967 0 30.2113)" stroke="#D8CECE"/>
<line y1="-0.5" x2="130.115" y2="-0.5" transform="matrix(0.71221 -0.701967 0.71221 0.701967 1.42578 92.7413)" stroke="#FFFCFC"/>
<line y1="-0.5" x2="130.115" y2="-0.5" transform="matrix(0.71221 -0.701967 0.71221 0.701967 39.9189 123.655)" stroke="#DFC5C5"/>
<line y1="-0.5" x2="130.115" y2="-0.5" transform="matrix(0.71221 -0.701967 0.71221 0.701967 86.2534 151.056)" stroke="#EDE9CA"/>
<line y1="-0.5" x2="80.0706" y2="-0.5" transform="matrix(0.71221 -0.701967 0.71221 0.701967 153.973 161.595)" stroke="#D5C1C1"/>
<rect x="212" y="337" width="198" height="298" fill="#E4E4E4"/>
<line y1="-0.5" x2="62.2736" y2="-0.5" transform="matrix(0.46189 -0.886937 0.46189 0.886937 212 392.233)" stroke="#D8CECE"/>
<line y1="-0.5" x2="188.269" y2="-0.5" transform="matrix(0.46189 -0.886937 0.46189 0.886937 213.338 506.552)" stroke="#FFFCFC"/>
<line y1="-0.5" x2="188.269" y2="-0.5" transform="matrix(0.46189 -0.886937 0.46189 0.886937 249.459 563.069)" stroke="#DFC5C5"/>
<line y1="-0.5" x2="188.269" y2="-0.5" transform="matrix(0.46189 -0.886937 0.46189 0.886937 292.939 613.164)" stroke="#EDE9CA"/>
<line y1="-0.5" x2="115.858" y2="-0.5" transform="matrix(0.46189 -0.886937 0.46189 0.886937 356.486 632.431)" stroke="#D5C1C1"/>
<rect x="556" y="642" width="260" height="182" fill="#E4E4E4"/>
<line y1="-0.5" x2="50.6408" y2="-0.5" transform="matrix(0.745846 -0.666118 0.745846 0.666118 556 675.733)" stroke="#D8CECE"/>
<line y1="-0.5" x2="153.1" y2="-0.5" transform="matrix(0.745846 -0.666118 0.745846 0.666118 557.757 745.552)" stroke="#FFFCFC"/>
<line y1="-0.5" x2="153.1" y2="-0.5" transform="matrix(0.745846 -0.666118 0.745846 0.666118 605.189 780.069)" stroke="#DFC5C5"/>
<line y1="-0.5" x2="153.1" y2="-0.5" transform="matrix(0.745846 -0.666118 0.745846 0.666118 662.284 810.664)" stroke="#EDE9CA"/>
<line y1="-0.5" x2="94.2155" y2="-0.5" transform="matrix(0.745846 -0.666118 0.745846 0.666118 745.73 822.431)" stroke="#D5C1C1"/>
<rect x="1.04761" y="162.603" width="203.037" height="118.61" stroke="#F0E1E1"/>
<rect x="1.48706" y="282.5" width="203.021" height="233" stroke="#F0E1E1"/>
<rect x="206.479" y="1.5" width="203.021" height="280" stroke="#F0E1E1"/>
<line y1="-0.5" x2="37.0139" y2="-0.5" transform="matrix(0.800793 -0.59894 0.800793 0.59894 6.81616 185.169)" stroke="#F0E1E1"/>
<line y1="-0.5" x2="111.902" y2="-0.5" transform="matrix(0.800793 -0.59894 0.800793 0.59894 8.19482 231.054)" stroke="#F0E1E1"/>
<line y1="-0.5" x2="111.902" y2="-0.5" transform="matrix(0.800793 -0.59894 0.800793 0.59894 45.418 253.739)" stroke="#F0E1E1"/>
<line y1="-0.5" x2="111.902" y2="-0.5" transform="matrix(0.800793 -0.59894 0.800793 0.59894 90.2231 273.845)" stroke="#F0E1E1"/>
<line y1="-0.5" x2="68.8631" y2="-0.5" transform="matrix(0.800793 -0.59894 0.800793 0.59894 155.708 281.579)" stroke="#F0E1E1"/>
<rect x="4.5" y="635.891" width="405" height="161.795" stroke="#F0E1E1"/>
<rect x="410.5" y="474.5" width="405" height="161.795" stroke="#F0E1E1"/>
<line y1="-0.5" x2="66.2497" y2="-0.5" transform="matrix(0.890264 -0.455445 0.890264 0.455445 4 665.564)" stroke="#F0E1E1"/>
<line y1="-0.5" x2="200.29" y2="-0.5" transform="matrix(0.890264 -0.455445 0.890264 0.455445 6.74341 728.016)" stroke="#F0E1E1"/>
<line y1="-0.5" x2="200.29" y2="-0.5" transform="matrix(0.890264 -0.455445 0.890264 0.455445 80.811 758.891)" stroke="#F0E1E1"/>
<line y1="-0.5" x2="200.29" y2="-0.5" transform="matrix(0.890264 -0.455445 0.890264 0.455445 169.966 786.257)" stroke="#F0E1E1"/>
<line y1="-0.5" x2="123.255" y2="-0.5" transform="matrix(0.890264 -0.455445 0.890264 0.455445 300.271 796.782)" stroke="#F0E1E1"/>
<rect x="410.5" y="206.5" width="193" height="129" stroke="#F0E1E1"/>
<line y1="-0.5" x2="37.0784" y2="-0.5" transform="matrix(0.760076 -0.649834 0.760076 0.649834 410 230.095)" stroke="#F0E1E1"/>
<line y1="-0.5" x2="112.098" y2="-0.5" transform="matrix(0.760076 -0.649834 0.760076 0.649834 411.311 279.966)" stroke="#F0E1E1"/>
<line y1="-0.5" x2="112.098" y2="-0.5" transform="matrix(0.760076 -0.649834 0.760076 0.649834 446.703 304.621)" stroke="#F0E1E1"/>
<line y1="-0.5" x2="112.098" y2="-0.5" transform="matrix(0.760076 -0.649834 0.760076 0.649834 489.304 326.474)" stroke="#F0E1E1"/>
<line y1="-0.5" x2="68.9831" y2="-0.5" transform="matrix(0.760076 -0.649834 0.760076 0.649834 551.568 334.879)" stroke="#F0E1E1"/>
<rect x="411.5" y="336.5" width="193" height="135.119" stroke="#F0E1E1"/>
<line y1="-0.5" x2="37.8253" y2="-0.5" transform="matrix(0.745069 -0.666988 0.745069 0.666988 411 361.229)" stroke="#F0E1E1"/>
<line y1="-0.5" x2="114.356" y2="-0.5" transform="matrix(0.745069 -0.666988 0.745069 0.666988 412.311 413.447)" stroke="#F0E1E1"/>
<line y1="-0.5" x2="114.356" y2="-0.5" transform="matrix(0.745069 -0.666988 0.745069 0.666988 447.703 439.263)" stroke="#F0E1E1"/>
<line y1="-0.5" x2="114.356" y2="-0.5" transform="matrix(0.745069 -0.666988 0.745069 0.666988 490.304 462.145)" stroke="#F0E1E1"/>
<line y1="-0.5" x2="70.3726" y2="-0.5" transform="matrix(0.745069 -0.666988 0.745069 0.666988 552.568 470.946)" stroke="#F0E1E1"/>
<rect x="410" y="-3" width="619" height="210" fill="#D9D9D9" fill-opacity="0.31"/>
<mask id="path-47-inside-1_26_111" fill="white">
<path d="M604 204H830V642H604V204Z"/>
</mask>
<path d="M604 204H830V642H604V204Z" fill="#FFDEDE" fill-opacity="0.31"/>
<path d="M605 642V204H603V642H605Z" fill="#D9CCCC" mask="url(#path-47-inside-1_26_111)"/>
<path d="M459.5 472V472.5H460H605H605.5V472V434.696V434.196H605H505.865V384.1H597.142H597.642V383.6V346.296V345.796H597.142H505.865V295.804H604.581H605.081V295.304V258V257.5H604.581H460H459.5V258V472Z" stroke="#D8CECE"/>
<mask id="path-50-outside-2_26_111" maskUnits="userSpaceOnUse" x="20" y="80" width="166" height="203" fill="black">
<rect fill="white" x="20" y="80" width="166" height="203"/>
<path d="M143.179 81H185V209.71C185 224.161 181.555 236.806 174.665 247.645C167.84 258.484 158.278 266.935 145.98 273C133.682 279 119.355 282 103 282C86.5807 282 72.2218 279 59.9234 273C47.6251 266.935 38.0632 258.484 31.2379 247.645C24.4126 236.806 21 224.161 21 209.71V81H62.821V206.129C62.821 213.677 64.4629 220.387 67.7468 226.258C71.095 232.129 75.7954 236.742 81.8481 240.097C87.9007 243.452 94.9513 245.129 103 245.129C111.113 245.129 118.164 243.452 124.152 240.097C130.205 236.742 134.873 232.129 138.157 226.258C141.505 220.387 143.179 213.677 143.179 206.129V81Z"/>
</mask>
<path d="M143.179 81V80H142.179V81H143.179ZM185 81H186V80H185V81ZM174.665 247.645L173.822 247.109L173.819 247.112L174.665 247.645ZM145.98 273L146.418 273.899L146.422 273.897L145.98 273ZM59.9234 273L59.4812 273.897L59.485 273.899L59.9234 273ZM31.2379 247.645L30.3917 248.178L30.3917 248.178L31.2379 247.645ZM21 81V80H20V81H21ZM62.821 81H63.821V80H62.821V81ZM67.7468 226.258L66.874 226.746L66.8781 226.753L67.7468 226.258ZM81.8481 240.097L81.3633 240.971L81.3633 240.971L81.8481 240.097ZM124.152 240.097L123.667 239.222L123.663 239.224L124.152 240.097ZM138.157 226.258L137.288 225.763L137.284 225.77L138.157 226.258ZM143.179 82H185V80H143.179V82ZM184 81V209.71H186V81H184ZM184 209.71C184 223.996 180.597 236.45 173.822 247.109L175.509 248.182C182.513 237.163 186 224.327 186 209.71H184ZM173.819 247.112C167.099 257.784 157.683 266.114 145.538 272.103L146.422 273.897C158.874 267.757 168.581 259.184 175.512 248.178L173.819 247.112ZM145.542 272.101C133.404 278.023 119.232 281 103 281V283C119.478 283 133.959 279.977 146.418 273.899L145.542 272.101ZM103 281C86.7026 281 72.4991 278.023 60.3619 272.101L59.485 273.899C71.9446 279.977 86.4587 283 103 283V281ZM60.3657 272.103C48.2208 266.114 38.804 257.784 32.0841 247.112L30.3917 248.178C37.3224 259.184 47.0293 267.757 59.4812 273.897L60.3657 272.103ZM32.0841 247.112C25.3718 236.453 22 223.998 22 209.71H20C20 224.325 23.4535 237.16 30.3917 248.178L32.0841 247.112ZM22 209.71V81H20V209.71H22ZM21 82H62.821V80H21V82ZM61.821 81V206.129H63.821V81H61.821ZM61.821 206.129C61.821 213.827 63.4969 220.709 66.874 226.746L68.6195 225.77C65.4289 220.066 63.821 213.528 63.821 206.129H61.821ZM66.8781 226.753C70.3194 232.788 75.1544 237.53 81.3633 240.971L82.3328 239.222C76.4365 235.954 71.8706 231.47 68.6154 225.763L66.8781 226.753ZM81.3633 240.971C87.5868 244.421 94.8096 246.129 103 246.129V244.129C95.0931 244.129 88.2145 242.482 82.3328 239.222L81.3633 240.971ZM103 246.129C111.253 246.129 118.478 244.422 124.641 240.969L123.663 239.224C117.849 242.482 110.973 244.129 103 244.129V246.129ZM124.637 240.971C130.847 237.529 135.652 232.784 139.029 226.746L137.284 225.77C134.094 231.474 129.562 235.955 123.667 239.222L124.637 240.971ZM139.025 226.753C142.469 220.715 144.179 213.83 144.179 206.129H142.179C142.179 213.524 140.54 220.06 137.288 225.763L139.025 226.753ZM144.179 206.129V81H142.179V206.129H144.179Z" fill="#C6C0C0" mask="url(#path-50-outside-2_26_111)"/>
<path d="M383 392V587H351.124L275.183 464.268H273.905V587H237V392H269.388L344.731 514.637H346.266V392H383Z" fill="black" fill-opacity="0.07"/>
<path d="M364.5 202V202.5H365H407.17H407.67V202V144.773L427.873 119.798L482.134 202.275L482.282 202.5H482.551H533H533.938L533.415 201.721L458.728 90.4757L532.51 0.31666L533.179 -0.5H532.123H481.577H481.338L481.188 -0.313745L409.561 88.5654H407.67V0V-0.5H407.17H365H364.5V0V202Z" fill="black" fill-opacity="0.06" stroke="#C6C6C6"/>
<path d="M803.895 690.545V690.045H803.395H772.642H772.142V690.545V836V836.5H772.642H803.395H803.895V836V690.545Z" stroke="#D8CECE"/>
<path d="M602 206H652.668L701.455 298.162H703.545L752.332 206H803L724.961 344.348V420H680.039V344.348L602 206Z" fill="#E9E3E3"/>
<path d="M238.447 69.8182H243.983V86.821C243.983 88.7301 243.527 90.4006 242.615 91.8324C241.712 93.2642 240.446 94.3807 238.818 95.1818C237.19 95.9744 235.294 96.3707 233.129 96.3707C230.956 96.3707 229.055 95.9744 227.428 95.1818C225.8 94.3807 224.534 93.2642 223.631 91.8324C222.727 90.4006 222.276 88.7301 222.276 86.821V69.8182H227.811V86.348C227.811 87.3452 228.028 88.2315 228.463 89.0071C228.906 89.7827 229.528 90.392 230.33 90.8352C231.131 91.2784 232.064 91.5 233.129 91.5C234.203 91.5 235.136 91.2784 235.929 90.8352C236.73 90.392 237.348 89.7827 237.783 89.0071C238.226 88.2315 238.447 87.3452 238.447 86.348V69.8182ZM253.881 84.6477V96H248.435V76.3636H253.625V79.8281H253.855C254.29 78.6861 255.019 77.7827 256.042 77.1179C257.064 76.4446 258.304 76.108 259.762 76.108C261.125 76.108 262.314 76.4062 263.328 77.0028C264.343 77.5994 265.131 78.4517 265.694 79.5597C266.256 80.6591 266.537 81.9716 266.537 83.4972V96H261.091V84.4688C261.1 83.267 260.793 82.3295 260.171 81.6562C259.549 80.9744 258.692 80.6335 257.601 80.6335C256.868 80.6335 256.221 80.7912 255.658 81.1065C255.104 81.4219 254.669 81.8821 254.354 82.4872C254.047 83.0838 253.89 83.804 253.881 84.6477ZM275.764 90.3494L275.777 83.8168H276.57L282.859 76.3636H289.111L280.661 86.233H279.369L275.764 90.3494ZM270.83 96V69.8182H276.276V96H270.83ZM283.102 96L277.324 87.4474L280.955 83.5994L289.482 96H283.102ZM299.923 96.3835C297.903 96.3835 296.164 95.9744 294.707 95.1562C293.258 94.3295 292.142 93.1619 291.358 91.6534C290.574 90.1364 290.181 88.3423 290.181 86.2713C290.181 84.2514 290.574 82.4787 291.358 80.9531C292.142 79.4276 293.245 78.2386 294.669 77.3864C296.1 76.5341 297.779 76.108 299.706 76.108C301.001 76.108 302.207 76.3168 303.324 76.7344C304.449 77.1435 305.429 77.7614 306.264 78.5881C307.108 79.4148 307.764 80.4545 308.233 81.7074C308.701 82.9517 308.936 84.4091 308.936 86.0795V87.5753H292.355V84.2003H303.809C303.809 83.4162 303.639 82.7216 303.298 82.1165C302.957 81.5114 302.484 81.0384 301.879 80.6974C301.282 80.348 300.588 80.1733 299.795 80.1733C298.968 80.1733 298.235 80.3651 297.596 80.7486C296.966 81.1236 296.471 81.6307 296.113 82.2699C295.755 82.9006 295.572 83.6037 295.564 84.3793V87.5881C295.564 88.5597 295.743 89.3991 296.1 90.1065C296.467 90.8139 296.983 91.3594 297.647 91.7429C298.312 92.1264 299.1 92.3182 300.012 92.3182C300.618 92.3182 301.172 92.233 301.674 92.0625C302.177 91.892 302.608 91.6364 302.966 91.2955C303.324 90.9545 303.596 90.5369 303.784 90.0426L308.821 90.375C308.565 91.5852 308.041 92.642 307.248 93.5455C306.464 94.4403 305.45 95.1392 304.206 95.642C302.97 96.1364 301.542 96.3835 299.923 96.3835ZM315.325 103.364C314.634 103.364 313.987 103.308 313.381 103.197C312.785 103.095 312.29 102.963 311.898 102.801L313.126 98.7358C313.765 98.9318 314.34 99.0384 314.852 99.0554C315.371 99.0724 315.819 98.9531 316.194 98.6974C316.577 98.4418 316.888 98.0071 317.127 97.3935L317.447 96.5625L310.403 76.3636H316.13L320.195 90.7841H320.4L324.504 76.3636H330.269L322.637 98.1222C322.271 99.179 321.772 100.099 321.141 100.884C320.519 101.676 319.731 102.286 318.776 102.712C317.822 103.146 316.671 103.364 315.325 103.364Z" fill="#B0ADAD" fill-opacity="0.1"/>
<path d="M565.447 110.818H570.983V127.821C570.983 129.73 570.527 131.401 569.615 132.832C568.712 134.264 567.446 135.381 565.818 136.182C564.19 136.974 562.294 137.371 560.129 137.371C557.956 137.371 556.055 136.974 554.428 136.182C552.8 135.381 551.534 134.264 550.631 132.832C549.727 131.401 549.276 129.73 549.276 127.821V110.818H554.811V127.348C554.811 128.345 555.028 129.232 555.463 130.007C555.906 130.783 556.528 131.392 557.33 131.835C558.131 132.278 559.064 132.5 560.129 132.5C561.203 132.5 562.136 132.278 562.929 131.835C563.73 131.392 564.348 130.783 564.783 130.007C565.226 129.232 565.447 128.345 565.447 127.348V110.818ZM580.881 125.648V137H575.435V117.364H580.625V120.828H580.855C581.29 119.686 582.019 118.783 583.042 118.118C584.064 117.445 585.304 117.108 586.762 117.108C588.125 117.108 589.314 117.406 590.328 118.003C591.343 118.599 592.131 119.452 592.694 120.56C593.256 121.659 593.537 122.972 593.537 124.497V137H588.091V125.469C588.1 124.267 587.793 123.33 587.171 122.656C586.549 121.974 585.692 121.634 584.601 121.634C583.868 121.634 583.221 121.791 582.658 122.107C582.104 122.422 581.669 122.882 581.354 123.487C581.047 124.084 580.89 124.804 580.881 125.648ZM602.764 131.349L602.777 124.817H603.57L609.859 117.364H616.111L607.661 127.233H606.369L602.764 131.349ZM597.83 137V110.818H603.276V137H597.83ZM610.102 137L604.324 128.447L607.955 124.599L616.482 137H610.102ZM626.923 137.384C624.903 137.384 623.164 136.974 621.707 136.156C620.258 135.33 619.142 134.162 618.358 132.653C617.574 131.136 617.181 129.342 617.181 127.271C617.181 125.251 617.574 123.479 618.358 121.953C619.142 120.428 620.245 119.239 621.669 118.386C623.1 117.534 624.779 117.108 626.706 117.108C628.001 117.108 629.207 117.317 630.324 117.734C631.449 118.143 632.429 118.761 633.264 119.588C634.108 120.415 634.764 121.455 635.233 122.707C635.701 123.952 635.936 125.409 635.936 127.08V128.575H619.355V125.2H630.809C630.809 124.416 630.639 123.722 630.298 123.116C629.957 122.511 629.484 122.038 628.879 121.697C628.282 121.348 627.588 121.173 626.795 121.173C625.968 121.173 625.235 121.365 624.596 121.749C623.966 122.124 623.471 122.631 623.113 123.27C622.755 123.901 622.572 124.604 622.564 125.379V128.588C622.564 129.56 622.743 130.399 623.1 131.107C623.467 131.814 623.983 132.359 624.647 132.743C625.312 133.126 626.1 133.318 627.012 133.318C627.618 133.318 628.172 133.233 628.674 133.062C629.177 132.892 629.608 132.636 629.966 132.295C630.324 131.955 630.596 131.537 630.784 131.043L635.821 131.375C635.565 132.585 635.041 133.642 634.248 134.545C633.464 135.44 632.45 136.139 631.206 136.642C629.97 137.136 628.542 137.384 626.923 137.384ZM642.325 144.364C641.634 144.364 640.987 144.308 640.381 144.197C639.785 144.095 639.29 143.963 638.898 143.801L640.126 139.736C640.765 139.932 641.34 140.038 641.852 140.055C642.371 140.072 642.819 139.953 643.194 139.697C643.577 139.442 643.888 139.007 644.127 138.393L644.447 137.562L637.403 117.364H643.13L647.195 131.784H647.4L651.504 117.364H657.269L649.637 139.122C649.271 140.179 648.772 141.099 648.141 141.884C647.519 142.676 646.731 143.286 645.776 143.712C644.822 144.146 643.671 144.364 642.325 144.364Z" fill="#B0ADAD" fill-opacity="0.1"/>
<path d="M307.447 746.818H312.983V763.821C312.983 765.73 312.527 767.401 311.615 768.832C310.712 770.264 309.446 771.381 307.818 772.182C306.19 772.974 304.294 773.371 302.129 773.371C299.956 773.371 298.055 772.974 296.428 772.182C294.8 771.381 293.534 770.264 292.631 768.832C291.727 767.401 291.276 765.73 291.276 763.821V746.818H296.811V763.348C296.811 764.345 297.028 765.232 297.463 766.007C297.906 766.783 298.528 767.392 299.33 767.835C300.131 768.278 301.064 768.5 302.129 768.5C303.203 768.5 304.136 768.278 304.929 767.835C305.73 767.392 306.348 766.783 306.783 766.007C307.226 765.232 307.447 764.345 307.447 763.348V746.818ZM322.881 761.648V773H317.435V753.364H322.625V756.828H322.855C323.29 755.686 324.019 754.783 325.042 754.118C326.064 753.445 327.304 753.108 328.762 753.108C330.125 753.108 331.314 753.406 332.328 754.003C333.343 754.599 334.131 755.452 334.694 756.56C335.256 757.659 335.537 758.972 335.537 760.497V773H330.091V761.469C330.1 760.267 329.793 759.33 329.171 758.656C328.549 757.974 327.692 757.634 326.601 757.634C325.868 757.634 325.221 757.791 324.658 758.107C324.104 758.422 323.669 758.882 323.354 759.487C323.047 760.084 322.89 760.804 322.881 761.648ZM344.764 767.349L344.777 760.817H345.57L351.859 753.364H358.111L349.661 763.233H348.369L344.764 767.349ZM339.83 773V746.818H345.276V773H339.83ZM352.102 773L346.324 764.447L349.955 760.599L358.482 773H352.102ZM368.923 773.384C366.903 773.384 365.164 772.974 363.707 772.156C362.258 771.33 361.142 770.162 360.358 768.653C359.574 767.136 359.181 765.342 359.181 763.271C359.181 761.251 359.574 759.479 360.358 757.953C361.142 756.428 362.245 755.239 363.669 754.386C365.1 753.534 366.779 753.108 368.706 753.108C370.001 753.108 371.207 753.317 372.324 753.734C373.449 754.143 374.429 754.761 375.264 755.588C376.108 756.415 376.764 757.455 377.233 758.707C377.701 759.952 377.936 761.409 377.936 763.08V764.575H361.355V761.2H372.809C372.809 760.416 372.639 759.722 372.298 759.116C371.957 758.511 371.484 758.038 370.879 757.697C370.282 757.348 369.588 757.173 368.795 757.173C367.968 757.173 367.235 757.365 366.596 757.749C365.966 758.124 365.471 758.631 365.113 759.27C364.755 759.901 364.572 760.604 364.564 761.379V764.588C364.564 765.56 364.743 766.399 365.1 767.107C365.467 767.814 365.983 768.359 366.647 768.743C367.312 769.126 368.1 769.318 369.012 769.318C369.618 769.318 370.172 769.233 370.674 769.062C371.177 768.892 371.608 768.636 371.966 768.295C372.324 767.955 372.596 767.537 372.784 767.043L377.821 767.375C377.565 768.585 377.041 769.642 376.248 770.545C375.464 771.44 374.45 772.139 373.206 772.642C371.97 773.136 370.542 773.384 368.923 773.384ZM384.325 780.364C383.634 780.364 382.987 780.308 382.381 780.197C381.785 780.095 381.29 779.963 380.898 779.801L382.126 775.736C382.765 775.932 383.34 776.038 383.852 776.055C384.371 776.072 384.819 775.953 385.194 775.697C385.577 775.442 385.888 775.007 386.127 774.393L386.447 773.562L379.403 753.364H385.13L389.195 767.784H389.4L393.504 753.364H399.269L391.637 775.122C391.271 776.179 390.772 777.099 390.141 777.884C389.519 778.676 388.731 779.286 387.776 779.712C386.822 780.146 385.671 780.364 384.325 780.364Z" fill="#B0ADAD" fill-opacity="0.1"/>
<path d="M565.447 455.818H570.983V472.821C570.983 474.73 570.527 476.401 569.615 477.832C568.712 479.264 567.446 480.381 565.818 481.182C564.19 481.974 562.294 482.371 560.129 482.371C557.956 482.371 556.055 481.974 554.428 481.182C552.8 480.381 551.534 479.264 550.631 477.832C549.727 476.401 549.276 474.73 549.276 472.821V455.818H554.811V472.348C554.811 473.345 555.028 474.232 555.463 475.007C555.906 475.783 556.528 476.392 557.33 476.835C558.131 477.278 559.064 477.5 560.129 477.5C561.203 477.5 562.136 477.278 562.929 476.835C563.73 476.392 564.348 475.783 564.783 475.007C565.226 474.232 565.447 473.345 565.447 472.348V455.818ZM580.881 470.648V482H575.435V462.364H580.625V465.828H580.855C581.29 464.686 582.019 463.783 583.042 463.118C584.064 462.445 585.304 462.108 586.762 462.108C588.125 462.108 589.314 462.406 590.328 463.003C591.343 463.599 592.131 464.452 592.694 465.56C593.256 466.659 593.537 467.972 593.537 469.497V482H588.091V470.469C588.1 469.267 587.793 468.33 587.171 467.656C586.549 466.974 585.692 466.634 584.601 466.634C583.868 466.634 583.221 466.791 582.658 467.107C582.104 467.422 581.669 467.882 581.354 468.487C581.047 469.084 580.89 469.804 580.881 470.648ZM602.764 476.349L602.777 469.817H603.57L609.859 462.364H616.111L607.661 472.233H606.369L602.764 476.349ZM597.83 482V455.818H603.276V482H597.83ZM610.102 482L604.324 473.447L607.955 469.599L616.482 482H610.102ZM626.923 482.384C624.903 482.384 623.164 481.974 621.707 481.156C620.258 480.33 619.142 479.162 618.358 477.653C617.574 476.136 617.181 474.342 617.181 472.271C617.181 470.251 617.574 468.479 618.358 466.953C619.142 465.428 620.245 464.239 621.669 463.386C623.1 462.534 624.779 462.108 626.706 462.108C628.001 462.108 629.207 462.317 630.324 462.734C631.449 463.143 632.429 463.761 633.264 464.588C634.108 465.415 634.764 466.455 635.233 467.707C635.701 468.952 635.936 470.409 635.936 472.08V473.575H619.355V470.2H630.809C630.809 469.416 630.639 468.722 630.298 468.116C629.957 467.511 629.484 467.038 628.879 466.697C628.282 466.348 627.588 466.173 626.795 466.173C625.968 466.173 625.235 466.365 624.596 466.749C623.966 467.124 623.471 467.631 623.113 468.27C622.755 468.901 622.572 469.604 622.564 470.379V473.588C622.564 474.56 622.743 475.399 623.1 476.107C623.467 476.814 623.983 477.359 624.647 477.743C625.312 478.126 626.1 478.318 627.012 478.318C627.618 478.318 628.172 478.233 628.674 478.062C629.177 477.892 629.608 477.636 629.966 477.295C630.324 476.955 630.596 476.537 630.784 476.043L635.821 476.375C635.565 477.585 635.041 478.642 634.248 479.545C633.464 480.44 632.45 481.139 631.206 481.642C629.97 482.136 628.542 482.384 626.923 482.384ZM642.325 489.364C641.634 489.364 640.987 489.308 640.381 489.197C639.785 489.095 639.29 488.963 638.898 488.801L640.126 484.736C640.765 484.932 641.34 485.038 641.852 485.055C642.371 485.072 642.819 484.953 643.194 484.697C643.577 484.442 643.888 484.007 644.127 483.393L644.447 482.562L637.403 462.364H643.13L647.195 476.784H647.4L651.504 462.364H657.269L649.637 484.122C649.271 485.179 648.772 486.099 648.141 486.884C647.519 487.676 646.731 488.286 645.776 488.712C644.822 489.146 643.671 489.364 642.325 489.364Z" fill="#B0ADAD" fill-opacity="0.1"/>
<path d="M77.4474 428.818H82.983V445.821C82.983 447.73 82.527 449.401 81.6151 450.832C80.7116 452.264 79.446 453.381 77.8182 454.182C76.1903 454.974 74.294 455.371 72.1293 455.371C69.956 455.371 68.0554 454.974 66.4276 454.182C64.7997 453.381 63.5341 452.264 62.6307 450.832C61.7273 449.401 61.2756 447.73 61.2756 445.821V428.818H66.8111V445.348C66.8111 446.345 67.0284 447.232 67.4631 448.007C67.9063 448.783 68.5284 449.392 69.3295 449.835C70.1307 450.278 71.0639 450.5 72.1293 450.5C73.2031 450.5 74.1364 450.278 74.929 449.835C75.7301 449.392 76.348 448.783 76.7827 448.007C77.2259 447.232 77.4474 446.345 77.4474 445.348V428.818ZM92.881 443.648V455H87.435V435.364H92.6254V438.828H92.8555C93.2901 437.686 94.0188 436.783 95.0415 436.118C96.0643 435.445 97.3043 435.108 98.7617 435.108C100.125 435.108 101.314 435.406 102.328 436.003C103.343 436.599 104.131 437.452 104.694 438.56C105.256 439.659 105.537 440.972 105.537 442.497V455H100.091V443.469C100.1 442.267 99.793 441.33 99.1708 440.656C98.5487 439.974 97.6921 439.634 96.6012 439.634C95.8683 439.634 95.2205 439.791 94.658 440.107C94.104 440.422 93.6694 440.882 93.354 441.487C93.0472 442.084 92.8896 442.804 92.881 443.648ZM114.764 449.349L114.777 442.817H115.57L121.859 435.364H128.111L119.661 445.233H118.369L114.764 449.349ZM109.83 455V428.818H115.276V455H109.83ZM122.102 455L116.324 446.447L119.955 442.599L128.482 455H122.102ZM138.923 455.384C136.903 455.384 135.164 454.974 133.707 454.156C132.258 453.33 131.142 452.162 130.358 450.653C129.574 449.136 129.181 447.342 129.181 445.271C129.181 443.251 129.574 441.479 130.358 439.953C131.142 438.428 132.245 437.239 133.669 436.386C135.1 435.534 136.779 435.108 138.706 435.108C140.001 435.108 141.207 435.317 142.324 435.734C143.449 436.143 144.429 436.761 145.264 437.588C146.108 438.415 146.764 439.455 147.233 440.707C147.701 441.952 147.936 443.409 147.936 445.08V446.575H131.355V443.2H142.809C142.809 442.416 142.639 441.722 142.298 441.116C141.957 440.511 141.484 440.038 140.879 439.697C140.282 439.348 139.588 439.173 138.795 439.173C137.968 439.173 137.235 439.365 136.596 439.749C135.966 440.124 135.471 440.631 135.113 441.27C134.755 441.901 134.572 442.604 134.564 443.379V446.588C134.564 447.56 134.743 448.399 135.1 449.107C135.467 449.814 135.983 450.359 136.647 450.743C137.312 451.126 138.1 451.318 139.012 451.318C139.618 451.318 140.172 451.233 140.674 451.062C141.177 450.892 141.608 450.636 141.966 450.295C142.324 449.955 142.596 449.537 142.784 449.043L147.821 449.375C147.565 450.585 147.041 451.642 146.248 452.545C145.464 453.44 144.45 454.139 143.206 454.642C141.97 455.136 140.542 455.384 138.923 455.384ZM154.325 462.364C153.634 462.364 152.987 462.308 152.381 462.197C151.785 462.095 151.29 461.963 150.898 461.801L152.126 457.736C152.765 457.932 153.34 458.038 153.852 458.055C154.371 458.072 154.819 457.953 155.194 457.697C155.577 457.442 155.888 457.007 156.127 456.393L156.447 455.562L149.403 435.364H155.13L159.195 449.784H159.4L163.504 435.364H169.269L161.637 457.122C161.271 458.179 160.772 459.099 160.141 459.884C159.519 460.676 158.731 461.286 157.776 461.712C156.822 462.146 155.671 462.364 154.325 462.364Z" fill="#B0ADAD" fill-opacity="0.1"/>
<path d="M92.4474 684.818H97.983V701.821C97.983 703.73 97.527 705.401 96.6151 706.832C95.7116 708.264 94.446 709.381 92.8182 710.182C91.1903 710.974 89.294 711.371 87.1293 711.371C84.956 711.371 83.0554 710.974 81.4276 710.182C79.7997 709.381 78.5341 708.264 77.6307 706.832C76.7273 705.401 76.2756 703.73 76.2756 701.821V684.818H81.8111V701.348C81.8111 702.345 82.0284 703.232 82.4631 704.007C82.9063 704.783 83.5284 705.392 84.3295 705.835C85.1307 706.278 86.0639 706.5 87.1293 706.5C88.2031 706.5 89.1364 706.278 89.929 705.835C90.7301 705.392 91.348 704.783 91.7827 704.007C92.2259 703.232 92.4474 702.345 92.4474 701.348V684.818ZM107.881 699.648V711H102.435V691.364H107.625V694.828H107.855C108.29 693.686 109.019 692.783 110.042 692.118C111.064 691.445 112.304 691.108 113.762 691.108C115.125 691.108 116.314 691.406 117.328 692.003C118.343 692.599 119.131 693.452 119.694 694.56C120.256 695.659 120.537 696.972 120.537 698.497V711H115.091V699.469C115.1 698.267 114.793 697.33 114.171 696.656C113.549 695.974 112.692 695.634 111.601 695.634C110.868 695.634 110.221 695.791 109.658 696.107C109.104 696.422 108.669 696.882 108.354 697.487C108.047 698.084 107.89 698.804 107.881 699.648ZM129.764 705.349L129.777 698.817H130.57L136.859 691.364H143.111L134.661 701.233H133.369L129.764 705.349ZM124.83 711V684.818H130.276V711H124.83ZM137.102 711L131.324 702.447L134.955 698.599L143.482 711H137.102ZM153.923 711.384C151.903 711.384 150.164 710.974 148.707 710.156C147.258 709.33 146.142 708.162 145.358 706.653C144.574 705.136 144.181 703.342 144.181 701.271C144.181 699.251 144.574 697.479 145.358 695.953C146.142 694.428 147.245 693.239 148.669 692.386C150.1 691.534 151.779 691.108 153.706 691.108C155.001 691.108 156.207 691.317 157.324 691.734C158.449 692.143 159.429 692.761 160.264 693.588C161.108 694.415 161.764 695.455 162.233 696.707C162.701 697.952 162.936 699.409 162.936 701.08V702.575H146.355V699.2H157.809C157.809 698.416 157.639 697.722 157.298 697.116C156.957 696.511 156.484 696.038 155.879 695.697C155.282 695.348 154.588 695.173 153.795 695.173C152.968 695.173 152.235 695.365 151.596 695.749C150.966 696.124 150.471 696.631 150.113 697.27C149.755 697.901 149.572 698.604 149.564 699.379V702.588C149.564 703.56 149.743 704.399 150.1 705.107C150.467 705.814 150.983 706.359 151.647 706.743C152.312 707.126 153.1 707.318 154.012 707.318C154.618 707.318 155.172 707.233 155.674 707.062C156.177 706.892 156.608 706.636 156.966 706.295C157.324 705.955 157.596 705.537 157.784 705.043L162.821 705.375C162.565 706.585 162.041 707.642 161.248 708.545C160.464 709.44 159.45 710.139 158.206 710.642C156.97 711.136 155.542 711.384 153.923 711.384ZM169.325 718.364C168.634 718.364 167.987 718.308 167.381 718.197C166.785 718.095 166.29 717.963 165.898 717.801L167.126 713.736C167.765 713.932 168.34 714.038 168.852 714.055C169.371 714.072 169.819 713.953 170.194 713.697C170.577 713.442 170.888 713.007 171.127 712.393L171.447 711.562L164.403 691.364H170.13L174.195 705.784H174.4L178.504 691.364H184.269L176.637 713.122C176.271 714.179 175.772 715.099 175.141 715.884C174.519 716.676 173.731 717.286 172.776 717.712C171.822 718.146 170.671 718.364 169.325 718.364Z" fill="#B0ADAD" fill-opacity="0.1"/>
<path d="M463.447 690.818H468.983V707.821C468.983 709.73 468.527 711.401 467.615 712.832C466.712 714.264 465.446 715.381 463.818 716.182C462.19 716.974 460.294 717.371 458.129 717.371C455.956 717.371 454.055 716.974 452.428 716.182C450.8 715.381 449.534 714.264 448.631 712.832C447.727 711.401 447.276 709.73 447.276 707.821V690.818H452.811V707.348C452.811 708.345 453.028 709.232 453.463 710.007C453.906 710.783 454.528 711.392 455.33 711.835C456.131 712.278 457.064 712.5 458.129 712.5C459.203 712.5 460.136 712.278 460.929 711.835C461.73 711.392 462.348 710.783 462.783 710.007C463.226 709.232 463.447 708.345 463.447 707.348V690.818ZM478.881 705.648V717H473.435V697.364H478.625V700.828H478.855C479.29 699.686 480.019 698.783 481.042 698.118C482.064 697.445 483.304 697.108 484.762 697.108C486.125 697.108 487.314 697.406 488.328 698.003C489.343 698.599 490.131 699.452 490.694 700.56C491.256 701.659 491.537 702.972 491.537 704.497V717H486.091V705.469C486.1 704.267 485.793 703.33 485.171 702.656C484.549 701.974 483.692 701.634 482.601 701.634C481.868 701.634 481.221 701.791 480.658 702.107C480.104 702.422 479.669 702.882 479.354 703.487C479.047 704.084 478.89 704.804 478.881 705.648ZM500.764 711.349L500.777 704.817H501.57L507.859 697.364H514.111L505.661 707.233H504.369L500.764 711.349ZM495.83 717V690.818H501.276V717H495.83ZM508.102 717L502.324 708.447L505.955 704.599L514.482 717H508.102ZM524.923 717.384C522.903 717.384 521.164 716.974 519.707 716.156C518.258 715.33 517.142 714.162 516.358 712.653C515.574 711.136 515.181 709.342 515.181 707.271C515.181 705.251 515.574 703.479 516.358 701.953C517.142 700.428 518.245 699.239 519.669 698.386C521.1 697.534 522.779 697.108 524.706 697.108C526.001 697.108 527.207 697.317 528.324 697.734C529.449 698.143 530.429 698.761 531.264 699.588C532.108 700.415 532.764 701.455 533.233 702.707C533.701 703.952 533.936 705.409 533.936 707.08V708.575H517.355V705.2H528.809C528.809 704.416 528.639 703.722 528.298 703.116C527.957 702.511 527.484 702.038 526.879 701.697C526.282 701.348 525.588 701.173 524.795 701.173C523.968 701.173 523.235 701.365 522.596 701.749C521.966 702.124 521.471 702.631 521.113 703.27C520.755 703.901 520.572 704.604 520.564 705.379V708.588C520.564 709.56 520.743 710.399 521.1 711.107C521.467 711.814 521.983 712.359 522.647 712.743C523.312 713.126 524.1 713.318 525.012 713.318C525.618 713.318 526.172 713.233 526.674 713.062C527.177 712.892 527.608 712.636 527.966 712.295C528.324 711.955 528.596 711.537 528.784 711.043L533.821 711.375C533.565 712.585 533.041 713.642 532.248 714.545C531.464 715.44 530.45 716.139 529.206 716.642C527.97 717.136 526.542 717.384 524.923 717.384ZM540.325 724.364C539.634 724.364 538.987 724.308 538.381 724.197C537.785 724.095 537.29 723.963 536.898 723.801L538.126 719.736C538.765 719.932 539.34 720.038 539.852 720.055C540.371 720.072 540.819 719.953 541.194 719.697C541.577 719.442 541.888 719.007 542.127 718.393L542.447 717.562L535.403 697.364H541.13L545.195 711.784H545.4L549.504 697.364H555.269L547.637 719.122C547.271 720.179 546.772 721.099 546.141 721.884C545.519 722.676 544.731 723.286 543.776 723.712C542.822 724.146 541.671 724.364 540.325 724.364Z" fill="#B0ADAD" fill-opacity="0.1"/>
<path d="M271.447 596.818H276.983V613.821C276.983 615.73 276.527 617.401 275.615 618.832C274.712 620.264 273.446 621.381 271.818 622.182C270.19 622.974 268.294 623.371 266.129 623.371C263.956 623.371 262.055 622.974 260.428 622.182C258.8 621.381 257.534 620.264 256.631 618.832C255.727 617.401 255.276 615.73 255.276 613.821V596.818H260.811V613.348C260.811 614.345 261.028 615.232 261.463 616.007C261.906 616.783 262.528 617.392 263.33 617.835C264.131 618.278 265.064 618.5 266.129 618.5C267.203 618.5 268.136 618.278 268.929 617.835C269.73 617.392 270.348 616.783 270.783 616.007C271.226 615.232 271.447 614.345 271.447 613.348V596.818ZM286.881 611.648V623H281.435V603.364H286.625V606.828H286.855C287.29 605.686 288.019 604.783 289.042 604.118C290.064 603.445 291.304 603.108 292.762 603.108C294.125 603.108 295.314 603.406 296.328 604.003C297.343 604.599 298.131 605.452 298.694 606.56C299.256 607.659 299.537 608.972 299.537 610.497V623H294.091V611.469C294.1 610.267 293.793 609.33 293.171 608.656C292.549 607.974 291.692 607.634 290.601 607.634C289.868 607.634 289.221 607.791 288.658 608.107C288.104 608.422 287.669 608.882 287.354 609.487C287.047 610.084 286.89 610.804 286.881 611.648ZM308.764 617.349L308.777 610.817H309.57L315.859 603.364H322.111L313.661 613.233H312.369L308.764 617.349ZM303.83 623V596.818H309.276V623H303.83ZM316.102 623L310.324 614.447L313.955 610.599L322.482 623H316.102ZM332.923 623.384C330.903 623.384 329.164 622.974 327.707 622.156C326.258 621.33 325.142 620.162 324.358 618.653C323.574 617.136 323.181 615.342 323.181 613.271C323.181 611.251 323.574 609.479 324.358 607.953C325.142 606.428 326.245 605.239 327.669 604.386C329.1 603.534 330.779 603.108 332.706 603.108C334.001 603.108 335.207 603.317 336.324 603.734C337.449 604.143 338.429 604.761 339.264 605.588C340.108 606.415 340.764 607.455 341.233 608.707C341.701 609.952 341.936 611.409 341.936 613.08V614.575H325.355V611.2H336.809C336.809 610.416 336.639 609.722 336.298 609.116C335.957 608.511 335.484 608.038 334.879 607.697C334.282 607.348 333.588 607.173 332.795 607.173C331.968 607.173 331.235 607.365 330.596 607.749C329.966 608.124 329.471 608.631 329.113 609.27C328.755 609.901 328.572 610.604 328.564 611.379V614.588C328.564 615.56 328.743 616.399 329.1 617.107C329.467 617.814 329.983 618.359 330.647 618.743C331.312 619.126 332.1 619.318 333.012 619.318C333.618 619.318 334.172 619.233 334.674 619.062C335.177 618.892 335.608 618.636 335.966 618.295C336.324 617.955 336.596 617.537 336.784 617.043L341.821 617.375C341.565 618.585 341.041 619.642 340.248 620.545C339.464 621.44 338.45 622.139 337.206 622.642C335.97 623.136 334.542 623.384 332.923 623.384ZM348.325 630.364C347.634 630.364 346.987 630.308 346.381 630.197C345.785 630.095 345.29 629.963 344.898 629.801L346.126 625.736C346.765 625.932 347.34 626.038 347.852 626.055C348.371 626.072 348.819 625.953 349.194 625.697C349.577 625.442 349.888 625.007 350.127 624.393L350.447 623.562L343.403 603.364H349.13L353.195 617.784H353.4L357.504 603.364H363.269L355.637 625.122C355.271 626.179 354.772 627.099 354.141 627.884C353.519 628.676 352.731 629.286 351.776 629.712C350.822 630.146 349.671 630.364 348.325 630.364Z" fill="#B0ADAD" fill-opacity="0.1"/>
<path d="M271.447 285.818H276.983V302.821C276.983 304.73 276.527 306.401 275.615 307.832C274.712 309.264 273.446 310.381 271.818 311.182C270.19 311.974 268.294 312.371 266.129 312.371C263.956 312.371 262.055 311.974 260.428 311.182C258.8 310.381 257.534 309.264 256.631 307.832C255.727 306.401 255.276 304.73 255.276 302.821V285.818H260.811V302.348C260.811 303.345 261.028 304.232 261.463 305.007C261.906 305.783 262.528 306.392 263.33 306.835C264.131 307.278 265.064 307.5 266.129 307.5C267.203 307.5 268.136 307.278 268.929 306.835C269.73 306.392 270.348 305.783 270.783 305.007C271.226 304.232 271.447 303.345 271.447 302.348V285.818ZM286.881 300.648V312H281.435V292.364H286.625V295.828H286.855C287.29 294.686 288.019 293.783 289.042 293.118C290.064 292.445 291.304 292.108 292.762 292.108C294.125 292.108 295.314 292.406 296.328 293.003C297.343 293.599 298.131 294.452 298.694 295.56C299.256 296.659 299.537 297.972 299.537 299.497V312H294.091V300.469C294.1 299.267 293.793 298.33 293.171 297.656C292.549 296.974 291.692 296.634 290.601 296.634C289.868 296.634 289.221 296.791 288.658 297.107C288.104 297.422 287.669 297.882 287.354 298.487C287.047 299.084 286.89 299.804 286.881 300.648ZM308.764 306.349L308.777 299.817H309.57L315.859 292.364H322.111L313.661 302.233H312.369L308.764 306.349ZM303.83 312V285.818H309.276V312H303.83ZM316.102 312L310.324 303.447L313.955 299.599L322.482 312H316.102ZM332.923 312.384C330.903 312.384 329.164 311.974 327.707 311.156C326.258 310.33 325.142 309.162 324.358 307.653C323.574 306.136 323.181 304.342 323.181 302.271C323.181 300.251 323.574 298.479 324.358 296.953C325.142 295.428 326.245 294.239 327.669 293.386C329.1 292.534 330.779 292.108 332.706 292.108C334.001 292.108 335.207 292.317 336.324 292.734C337.449 293.143 338.429 293.761 339.264 294.588C340.108 295.415 340.764 296.455 341.233 297.707C341.701 298.952 341.936 300.409 341.936 302.08V303.575H325.355V300.2H336.809C336.809 299.416 336.639 298.722 336.298 298.116C335.957 297.511 335.484 297.038 334.879 296.697C334.282 296.348 333.588 296.173 332.795 296.173C331.968 296.173 331.235 296.365 330.596 296.749C329.966 297.124 329.471 297.631 329.113 298.27C328.755 298.901 328.572 299.604 328.564 300.379V303.588C328.564 304.56 328.743 305.399 329.1 306.107C329.467 306.814 329.983 307.359 330.647 307.743C331.312 308.126 332.1 308.318 333.012 308.318C333.618 308.318 334.172 308.233 334.674 308.062C335.177 307.892 335.608 307.636 335.966 307.295C336.324 306.955 336.596 306.537 336.784 306.043L341.821 306.375C341.565 307.585 341.041 308.642 340.248 309.545C339.464 310.44 338.45 311.139 337.206 311.642C335.97 312.136 334.542 312.384 332.923 312.384ZM348.325 319.364C347.634 319.364 346.987 319.308 346.381 319.197C345.785 319.095 345.29 318.963 344.898 318.801L346.126 314.736C346.765 314.932 347.34 315.038 347.852 315.055C348.371 315.072 348.819 314.953 349.194 314.697C349.577 314.442 349.888 314.007 350.127 313.393L350.447 312.562L343.403 292.364H349.13L353.195 306.784H353.4L357.504 292.364H363.269L355.637 314.122C355.271 315.179 354.772 316.099 354.141 316.884C353.519 317.676 352.731 318.286 351.776 318.712C350.822 319.146 349.671 319.364 348.325 319.364Z" fill="#B0ADAD" fill-opacity="0.1"/>
<path d="M19.4474 286.818H24.983V303.821C24.983 305.73 24.527 307.401 23.6151 308.832C22.7116 310.264 21.446 311.381 19.8182 312.182C18.1903 312.974 16.294 313.371 14.1293 313.371C11.956 313.371 10.0554 312.974 8.42756 312.182C6.79972 311.381 5.53409 310.264 4.63068 308.832C3.72727 307.401 3.27557 305.73 3.27557 303.821V286.818H8.81108V303.348C8.81108 304.345 9.02841 305.232 9.46307 306.007C9.90625 306.783 10.5284 307.392 11.3295 307.835C12.1307 308.278 13.0639 308.5 14.1293 308.5C15.2031 308.5 16.1364 308.278 16.929 307.835C17.7301 307.392 18.348 306.783 18.7827 306.007C19.2259 305.232 19.4474 304.345 19.4474 303.348V286.818ZM34.881 301.648V313H29.435V293.364H34.6254V296.828H34.8555C35.2901 295.686 36.0188 294.783 37.0415 294.118C38.0643 293.445 39.3043 293.108 40.7617 293.108C42.1254 293.108 43.3143 293.406 44.3285 294.003C45.3427 294.599 46.131 295.452 46.6935 296.56C47.256 297.659 47.5373 298.972 47.5373 300.497V313H42.0913V301.469C42.0998 300.267 41.793 299.33 41.1708 298.656C40.5487 297.974 39.6921 297.634 38.6012 297.634C37.8683 297.634 37.2205 297.791 36.658 298.107C36.104 298.422 35.6694 298.882 35.354 299.487C35.0472 300.084 34.8896 300.804 34.881 301.648ZM56.7642 307.349L56.777 300.817H57.5696L63.8594 293.364H70.1108L61.6605 303.233H60.3693L56.7642 307.349ZM51.8295 313V286.818H57.2756V313H51.8295ZM64.1023 313L58.3239 304.447L61.9545 300.599L70.4815 313H64.1023ZM80.9229 313.384C78.9031 313.384 77.1644 312.974 75.707 312.156C74.2582 311.33 73.1417 310.162 72.3576 308.653C71.5735 307.136 71.1815 305.342 71.1815 303.271C71.1815 301.251 71.5735 299.479 72.3576 297.953C73.1417 296.428 74.2454 295.239 75.6687 294.386C77.1005 293.534 78.7795 293.108 80.7056 293.108C82.0011 293.108 83.207 293.317 84.3235 293.734C85.4485 294.143 86.4286 294.761 87.2639 295.588C88.1076 296.415 88.7639 297.455 89.2326 298.707C89.7014 299.952 89.9357 301.409 89.9357 303.08V304.575H73.3548V301.2H84.8093C84.8093 300.416 84.6389 299.722 84.2979 299.116C83.957 298.511 83.484 298.038 82.8789 297.697C82.2823 297.348 81.5877 297.173 80.7951 297.173C79.9684 297.173 79.2354 297.365 78.5962 297.749C77.9656 298.124 77.4712 298.631 77.1133 299.27C76.7553 299.901 76.5721 300.604 76.5636 301.379V304.588C76.5636 305.56 76.7425 306.399 77.1005 307.107C77.467 307.814 77.9826 308.359 78.6474 308.743C79.3121 309.126 80.1005 309.318 81.0124 309.318C81.6175 309.318 82.1715 309.233 82.6744 309.062C83.1772 308.892 83.6076 308.636 83.9656 308.295C84.3235 307.955 84.5962 307.537 84.7837 307.043L89.8207 307.375C89.565 308.585 89.0408 309.642 88.2482 310.545C87.4641 311.44 86.4499 312.139 85.2056 312.642C83.9698 313.136 82.5423 313.384 80.9229 313.384ZM96.3246 320.364C95.6342 320.364 94.9865 320.308 94.3814 320.197C93.7848 320.095 93.2905 319.963 92.8984 319.801L94.1257 315.736C94.7649 315.932 95.3402 316.038 95.8516 316.055C96.3714 316.072 96.8189 315.953 97.1939 315.697C97.5774 315.442 97.8885 315.007 98.1271 314.393L98.4467 313.562L91.4027 293.364H97.13L101.195 307.784H101.4L105.504 293.364H111.269L103.637 315.122C103.271 316.179 102.772 317.099 102.141 317.884C101.519 318.676 100.731 319.286 99.7763 319.712C98.8217 320.146 97.6712 320.364 96.3246 320.364Z" fill="#B0ADAD" fill-opacity="0.1"/>
<path d="M720.447 11.8182H725.983V28.821C725.983 30.7301 725.527 32.4006 724.615 33.8324C723.712 35.2642 722.446 36.3807 720.818 37.1818C719.19 37.9744 717.294 38.3707 715.129 38.3707C712.956 38.3707 711.055 37.9744 709.428 37.1818C707.8 36.3807 706.534 35.2642 705.631 33.8324C704.727 32.4006 704.276 30.7301 704.276 28.821V11.8182H709.811V28.348C709.811 29.3452 710.028 30.2315 710.463 31.0071C710.906 31.7827 711.528 32.392 712.33 32.8352C713.131 33.2784 714.064 33.5 715.129 33.5C716.203 33.5 717.136 33.2784 717.929 32.8352C718.73 32.392 719.348 31.7827 719.783 31.0071C720.226 30.2315 720.447 29.3452 720.447 28.348V11.8182ZM735.881 26.6477V38H730.435V18.3636H735.625V21.8281H735.855C736.29 20.6861 737.019 19.7827 738.042 19.1179C739.064 18.4446 740.304 18.108 741.762 18.108C743.125 18.108 744.314 18.4062 745.328 19.0028C746.343 19.5994 747.131 20.4517 747.694 21.5597C748.256 22.6591 748.537 23.9716 748.537 25.4972V38H743.091V26.4688C743.1 25.267 742.793 24.3295 742.171 23.6562C741.549 22.9744 740.692 22.6335 739.601 22.6335C738.868 22.6335 738.221 22.7912 737.658 23.1065C737.104 23.4219 736.669 23.8821 736.354 24.4872C736.047 25.0838 735.89 25.804 735.881 26.6477ZM757.764 32.3494L757.777 25.8168H758.57L764.859 18.3636H771.111L762.661 28.233H761.369L757.764 32.3494ZM752.83 38V11.8182H758.276V38H752.83ZM765.102 38L759.324 29.4474L762.955 25.5994L771.482 38H765.102ZM781.923 38.3835C779.903 38.3835 778.164 37.9744 776.707 37.1562C775.258 36.3295 774.142 35.1619 773.358 33.6534C772.574 32.1364 772.181 30.3423 772.181 28.2713C772.181 26.2514 772.574 24.4787 773.358 22.9531C774.142 21.4276 775.245 20.2386 776.669 19.3864C778.1 18.5341 779.779 18.108 781.706 18.108C783.001 18.108 784.207 18.3168 785.324 18.7344C786.449 19.1435 787.429 19.7614 788.264 20.5881C789.108 21.4148 789.764 22.4545 790.233 23.7074C790.701 24.9517 790.936 26.4091 790.936 28.0795V29.5753H774.355V26.2003H785.809C785.809 25.4162 785.639 24.7216 785.298 24.1165C784.957 23.5114 784.484 23.0384 783.879 22.6974C783.282 22.348 782.588 22.1733 781.795 22.1733C780.968 22.1733 780.235 22.3651 779.596 22.7486C778.966 23.1236 778.471 23.6307 778.113 24.2699C777.755 24.9006 777.572 25.6037 777.564 26.3793V29.5881C777.564 30.5597 777.743 31.3991 778.1 32.1065C778.467 32.8139 778.983 33.3594 779.647 33.7429C780.312 34.1264 781.1 34.3182 782.012 34.3182C782.618 34.3182 783.172 34.233 783.674 34.0625C784.177 33.892 784.608 33.6364 784.966 33.2955C785.324 32.9545 785.596 32.5369 785.784 32.0426L790.821 32.375C790.565 33.5852 790.041 34.642 789.248 35.5455C788.464 36.4403 787.45 37.1392 786.206 37.642C784.97 38.1364 783.542 38.3835 781.923 38.3835ZM797.325 45.3636C796.634 45.3636 795.987 45.3082 795.381 45.1974C794.785 45.0952 794.29 44.9631 793.898 44.8011L795.126 40.7358C795.765 40.9318 796.34 41.0384 796.852 41.0554C797.371 41.0724 797.819 40.9531 798.194 40.6974C798.577 40.4418 798.888 40.0071 799.127 39.3935L799.447 38.5625L792.403 18.3636H798.13L802.195 32.7841H802.4L806.504 18.3636H812.269L804.637 40.1222C804.271 41.179 803.772 42.0994 803.141 42.8835C802.519 43.6761 801.731 44.2855 800.776 44.7116C799.822 45.1463 798.671 45.3636 797.325 45.3636Z" fill="#B0ADAD" fill-opacity="0.1"/>
<path d="M33.4474 25.8182H38.983V42.821C38.983 44.7301 38.527 46.4006 37.6151 47.8324C36.7116 49.2642 35.446 50.3807 33.8182 51.1818C32.1903 51.9744 30.294 52.3707 28.1293 52.3707C25.956 52.3707 24.0554 51.9744 22.4276 51.1818C20.7997 50.3807 19.5341 49.2642 18.6307 47.8324C17.7273 46.4006 17.2756 44.7301 17.2756 42.821V25.8182H22.8111V42.348C22.8111 43.3452 23.0284 44.2315 23.4631 45.0071C23.9063 45.7827 24.5284 46.392 25.3295 46.8352C26.1307 47.2784 27.0639 47.5 28.1293 47.5C29.2031 47.5 30.1364 47.2784 30.929 46.8352C31.7301 46.392 32.348 45.7827 32.7827 45.0071C33.2259 44.2315 33.4474 43.3452 33.4474 42.348V25.8182ZM48.881 40.6477V52H43.435V32.3636H48.6254V35.8281H48.8555C49.2901 34.6861 50.0188 33.7827 51.0415 33.1179C52.0643 32.4446 53.3043 32.108 54.7617 32.108C56.1254 32.108 57.3143 32.4062 58.3285 33.0028C59.3427 33.5994 60.131 34.4517 60.6935 35.5597C61.256 36.6591 61.5373 37.9716 61.5373 39.4972V52H56.0913V40.4688C56.0998 39.267 55.793 38.3295 55.1708 37.6562C54.5487 36.9744 53.6921 36.6335 52.6012 36.6335C51.8683 36.6335 51.2205 36.7912 50.658 37.1065C50.104 37.4219 49.6694 37.8821 49.354 38.4872C49.0472 39.0838 48.8896 39.804 48.881 40.6477ZM70.7642 46.3494L70.777 39.8168H71.5696L77.8594 32.3636H84.1108L75.6605 42.233H74.3693L70.7642 46.3494ZM65.8295 52V25.8182H71.2756V52H65.8295ZM78.1023 52L72.3239 43.4474L75.9545 39.5994L84.4815 52H78.1023ZM94.9229 52.3835C92.9031 52.3835 91.1644 51.9744 89.707 51.1562C88.2582 50.3295 87.1417 49.1619 86.3576 47.6534C85.5735 46.1364 85.1815 44.3423 85.1815 42.2713C85.1815 40.2514 85.5735 38.4787 86.3576 36.9531C87.1417 35.4276 88.2454 34.2386 89.6687 33.3864C91.1005 32.5341 92.7795 32.108 94.7056 32.108C96.0011 32.108 97.207 32.3168 98.3235 32.7344C99.4485 33.1435 100.429 33.7614 101.264 34.5881C102.108 35.4148 102.764 36.4545 103.233 37.7074C103.701 38.9517 103.936 40.4091 103.936 42.0795V43.5753H87.3548V40.2003H98.8093C98.8093 39.4162 98.6389 38.7216 98.2979 38.1165C97.957 37.5114 97.484 37.0384 96.8789 36.6974C96.2823 36.348 95.5877 36.1733 94.7951 36.1733C93.9684 36.1733 93.2354 36.3651 92.5962 36.7486C91.9656 37.1236 91.4712 37.6307 91.1133 38.2699C90.7553 38.9006 90.5721 39.6037 90.5636 40.3793V43.5881C90.5636 44.5597 90.7425 45.3991 91.1005 46.1065C91.467 46.8139 91.9826 47.3594 92.6474 47.7429C93.3121 48.1264 94.1005 48.3182 95.0124 48.3182C95.6175 48.3182 96.1715 48.233 96.6744 48.0625C97.1772 47.892 97.6076 47.6364 97.9656 47.2955C98.3235 46.9545 98.5962 46.5369 98.7837 46.0426L103.821 46.375C103.565 47.5852 103.041 48.642 102.248 49.5455C101.464 50.4403 100.45 51.1392 99.2056 51.642C97.9698 52.1364 96.5423 52.3835 94.9229 52.3835ZM110.325 59.3636C109.634 59.3636 108.987 59.3082 108.381 59.1974C107.785 59.0952 107.29 58.9631 106.898 58.8011L108.126 54.7358C108.765 54.9318 109.34 55.0384 109.852 55.0554C110.371 55.0724 110.819 54.9531 111.194 54.6974C111.577 54.4418 111.888 54.0071 112.127 53.3935L112.447 52.5625L105.403 32.3636H111.13L115.195 46.7841H115.4L119.504 32.3636H125.269L117.637 54.1222C117.271 55.179 116.772 56.0994 116.141 56.8835C115.519 57.6761 114.731 58.2855 113.776 58.7116C112.822 59.1463 111.671 59.3636 110.325 59.3636Z" fill="#B0ADAD" fill-opacity="0.1"/>
</g>
<defs>
<clipPath id="clip0_26_111">
<rect width="800" height="800" fill="white"/>
</clipPath>
</defs>
</svg>
